<?xml version="1.0" encoding="UTF-8"?>
<svg xmlns="http://www.w3.org/2000/svg" width="1254" height="1254" viewBox="0 0 1254 1254">
  <path d="M 918.00 573.00 L 936.00 615.00 L 944.00 661.00 L 941.00 694.00 L 924.00 745.00 L 906.00 779.00 L 867.00 831.00 L 757.00 936.00 L 713.00 984.00 L 682.00 1041.00 L 670.00 1092.00 L 687.00 1053.00 L 714.00 1015.00 L 759.00 974.00 L 903.00 876.00 L 942.00 836.00 L 971.00 790.00 L 989.00 732.00 L 990.00 694.00 L 985.00 666.00 L 960.00 614.00 Z M 773.00 440.00 L 778.00 500.00 L 772.00 530.00 L 751.00 575.00 L 727.00 604.00 L 721.00 606.00 L 702.00 594.00 L 677.00 589.00 L 614.00 597.00 L 548.00 630.00 L 500.00 675.00 L 479.00 709.00 L 468.00 747.00 L 471.00 782.00 L 489.00 812.00 L 515.00 827.00 L 545.00 835.00 L 614.00 831.00 L 679.00 802.00 L 710.00 778.00 L 741.00 744.00 L 668.00 786.00 L 599.00 806.00 L 567.00 806.00 L 540.00 797.00 L 523.00 780.00 L 517.00 759.00 L 524.00 724.00 L 581.00 728.00 L 652.00 715.00 L 704.00 691.00 L 752.00 649.00 L 785.00 597.00 L 800.00 544.00 L 796.00 488.00 Z M 694.00 616.00 L 697.00 623.00 L 697.00 631.00 L 691.00 646.00 L 672.00 668.00 L 643.00 690.00 L 627.00 699.00 L 610.00 706.00 L 580.00 715.00 L 550.00 719.00 L 530.00 719.00 L 527.00 717.00 L 538.00 695.00 L 557.00 669.00 L 582.00 644.00 L 604.00 628.00 L 632.00 614.00 L 647.00 609.00 L 663.00 606.00 L 680.00 607.00 L 688.00 610.00 Z M 588.00 371.00 L 520.00 373.00 L 456.00 386.00 L 379.00 418.00 L 321.00 459.00 L 291.00 490.00 L 272.00 516.00 L 257.00 545.00 L 248.00 574.00 L 248.00 626.00 L 257.00 650.00 L 272.00 671.00 L 291.00 686.00 L 323.00 698.00 L 305.00 677.00 L 294.00 655.00 L 289.00 631.00 L 291.00 602.00 L 302.00 569.00 L 320.00 536.00 L 340.00 508.00 L 377.00 469.00 L 427.00 431.00 L 476.00 404.00 L 526.00 385.00 Z M 633.00 119.00 L 668.00 156.00 L 691.00 204.00 L 694.00 251.00 L 682.00 301.00 L 634.00 378.00 L 446.00 585.00 L 410.00 653.00 L 392.00 731.00 L 403.00 825.00 L 445.00 915.00 L 515.00 996.00 L 626.00 1085.00 L 524.00 976.00 L 473.00 908.00 L 438.00 832.00 L 426.00 756.00 L 445.00 667.00 L 499.00 582.00 L 570.00 520.00 L 732.00 418.00 L 767.00 379.00 L 789.00 333.00 L 792.00 263.00 L 763.00 195.00 L 704.00 144.00 Z" fill="#000000" fill-rule="evenodd"/>
</svg>
